<mxfile host="app.diagrams.net" modified="2024-01-25T05:02:06.848Z" agent="Mozilla/5.0 (Windows NT 10.0; Win64; x64) AppleWebKit/537.36 (KHTML, like Gecko) Chrome/120.0.0.0 Safari/537.36" version="22.1.21" etag="rT28jLuKORQ934YbU-rK" type="github">
  <diagram name="Trang-1" id="PGPuonrAZV76nMHsHKJV">
    <mxGraphModel>
      <root>
        <mxCell id="0" />
        <mxCell id="1" parent="0" />
      </root>
    </mxGraphModel>
  </diagram>
</mxfile>
